<?xml version="1.0" standalone="no"?>
<!DOCTYPE svg PUBLIC "-//W3C//DTD SVG 20010904//EN"
 "http://www.w3.org/TR/2001/REC-SVG-20010904/DTD/svg10.dtd">
<svg version="1.0" xmlns="http://www.w3.org/2000/svg"
 width="500.000000pt" height="500.000000pt" viewBox="0 0 500.000000 500.000000"
 preserveAspectRatio="xMidYMid meet">
<metadata>
Created by potrace 1.16, written by Peter Selinger 2001-2019
</metadata>
<g transform="translate(0.000000,500.000000) scale(0.100000,-0.100000)"
fill="#000000" stroke="none">
<path d="M3420 4160 c-363 -43 -656 -299 -751 -655 -22 -84 -32 -290 -16 -347
l7 -28 -749 0 -750 0 -10 38 c-6 20 -19 73 -29 117 l-18 80 -148 111 c-139
103 -150 115 -168 162 -44 117 -174 154 -266 77 -89 -75 -77 -212 22 -270 47
-27 88 -31 147 -14 l38 12 114 -86 c104 -78 115 -89 125 -129 56 -226 392
-1702 392 -1722 0 -17 -16 -44 -49 -79 -66 -73 -85 -127 -79 -219 6 -87 30
-141 91 -200 66 -65 94 -78 163 -78 l61 0 7 -49 c9 -65 58 -137 119 -175 153
-94 347 1 382 187 l7 37 529 0 529 0 0 -32 c0 -47 41 -129 81 -162 103 -88
238 -89 335 -3 52 46 70 77 85 147 l11 50 42 0 c62 0 96 29 96 81 0 63 -24 79
-120 79 -75 0 -82 2 -124 34 -39 30 -114 56 -160 56 -34 0 -117 -33 -151 -60
l-38 -30 -588 0 -589 0 -44 34 c-39 30 -114 56 -160 56 -32 0 -118 -33 -144
-55 -26 -22 -39 -25 -108 -25 -88 0 -110 11 -138 67 -30 59 -22 98 31 151 59
60 83 112 83 185 l0 57 990 0 c1069 0 1039 -1 1074 52 10 15 34 160 71 419 30
218 55 399 55 402 0 3 30 15 68 28 150 49 270 126 378 242 391 419 273 1091
-238 1361 -45 25 -114 54 -153 65 -62 19 -225 43 -265 40 -8 -1 -44 -5 -80 -9z
m263 -189 c286 -74 493 -310 526 -599 38 -345 -168 -649 -509 -753 -95 -29
-252 -32 -350 -6 -86 23 -213 86 -275 138 -117 97 -207 240 -241 384 -25 110
-16 276 23 386 76 219 262 390 485 449 99 26 241 26 341 1z m-2019 -1096 c59
-28 60 -36 111 -532 45 -437 47 -464 31 -488 -23 -35 -86 -35 -121 0 -14 13
-25 28 -25 32 -1 4 -27 211 -59 460 -62 488 -62 504 -11 530 32 16 36 16 74
-2z m626 -20 c23 -23 25 -33 31 -172 4 -82 10 -297 14 -479 7 -331 7 -332 -15
-354 -16 -16 -31 -20 -62 -18 -78 6 -76 -8 -101 516 -19 415 -20 466 -6 490
31 56 91 63 139 17z m541 -101 l47 -62 -19 -389 c-11 -213 -22 -398 -25 -411
-12 -59 -100 -85 -139 -42 -20 22 -20 21 -10 480 9 423 14 486 38 517 l21 26
21 -28 c11 -16 41 -57 66 -91z m517 -316 c54 -11 62 -16 62 -35 0 -12 -13
-127 -30 -255 -16 -128 -30 -238 -30 -244 0 -7 -12 -26 -26 -43 -20 -24 -34
-31 -62 -31 -50 0 -72 23 -72 76 0 23 11 149 25 280 14 131 25 247 25 257 0
15 5 18 23 13 12 -3 50 -12 85 -18z m-1487 -1447 c38 -39 40 -88 3 -125 -58
-58 -154 -20 -154 61 1 86 91 124 151 64z m1560 19 c10 -6 26 -24 35 -41 32
-62 -13 -129 -86 -129 -53 0 -95 48 -86 99 10 64 81 101 137 71z"/>
<path d="M3170 3702 c-40 -20 -60 -53 -60 -101 0 -31 14 -49 132 -168 l132
-133 -133 -135 -134 -134 5 -46 c6 -53 21 -73 66 -92 55 -23 85 -5 222 132
l125 125 125 -124 c135 -135 164 -153 215 -136 46 15 67 42 73 95 l5 46 -134
134 -133 135 133 135 134 134 -5 46 c-6 53 -21 73 -66 92 -55 23 -85 5 -222
-132 l-125 -125 -125 124 c-107 107 -157 146 -188 146 -4 0 -23 -8 -42 -18z"/>
</g>
</svg>
